<mxfile host="app.diagrams.net" modified="2024-03-22T10:10:38.480Z" agent="Mozilla/5.0 (Windows NT 6.3; Win64; x64; rv:109.0) Gecko/20100101 Firefox/115.0" etag="FilSWfgqhJ1OJWz9Fx69" version="24.0.7" type="github">
  <diagram name="Halaman-1" id="6r4PwG5nbcdOmkEriE1u">
    <mxGraphModel dx="1130" dy="649" grid="1" gridSize="10" guides="1" tooltips="1" connect="1" arrows="1" fold="1" page="1" pageScale="1" pageWidth="1654" pageHeight="2336" math="0" shadow="0">
      <root>
        <mxCell id="0" />
        <mxCell id="1" parent="0" />
        <mxCell id="_tSJOPq2AYvvMhshlOSx-5" value="" style="edgeStyle=orthogonalEdgeStyle;rounded=0;orthogonalLoop=1;jettySize=auto;html=1;endArrow=none;endFill=0;entryX=0.5;entryY=0;entryDx=0;entryDy=0;" edge="1" parent="1" source="_tSJOPq2AYvvMhshlOSx-1" target="_tSJOPq2AYvvMhshlOSx-2">
          <mxGeometry relative="1" as="geometry">
            <mxPoint x="110" y="50" as="targetPoint" />
            <Array as="points">
              <mxPoint x="650" y="70" />
              <mxPoint x="100" y="70" />
            </Array>
          </mxGeometry>
        </mxCell>
        <mxCell id="_tSJOPq2AYvvMhshlOSx-56" style="edgeStyle=orthogonalEdgeStyle;rounded=0;orthogonalLoop=1;jettySize=auto;html=1;exitX=0;exitY=0.75;exitDx=0;exitDy=0;entryX=0.5;entryY=0;entryDx=0;entryDy=0;endArrow=none;endFill=0;" edge="1" parent="1" source="_tSJOPq2AYvvMhshlOSx-1" target="_tSJOPq2AYvvMhshlOSx-8">
          <mxGeometry relative="1" as="geometry">
            <Array as="points">
              <mxPoint x="650" y="45" />
              <mxPoint x="650" y="70" />
              <mxPoint x="300" y="70" />
            </Array>
          </mxGeometry>
        </mxCell>
        <mxCell id="_tSJOPq2AYvvMhshlOSx-57" style="edgeStyle=orthogonalEdgeStyle;rounded=0;orthogonalLoop=1;jettySize=auto;html=1;exitX=0.5;exitY=0;exitDx=0;exitDy=0;entryX=0.5;entryY=0;entryDx=0;entryDy=0;endArrow=none;endFill=0;" edge="1" parent="1" source="_tSJOPq2AYvvMhshlOSx-44" target="_tSJOPq2AYvvMhshlOSx-35">
          <mxGeometry relative="1" as="geometry">
            <Array as="points">
              <mxPoint x="610" y="70" />
              <mxPoint x="460" y="70" />
            </Array>
          </mxGeometry>
        </mxCell>
        <mxCell id="_tSJOPq2AYvvMhshlOSx-58" style="edgeStyle=orthogonalEdgeStyle;rounded=0;orthogonalLoop=1;jettySize=auto;html=1;exitX=0.25;exitY=1;exitDx=0;exitDy=0;entryX=0.5;entryY=0;entryDx=0;entryDy=0;endArrow=none;endFill=0;" edge="1" parent="1" source="_tSJOPq2AYvvMhshlOSx-1" target="_tSJOPq2AYvvMhshlOSx-44">
          <mxGeometry relative="1" as="geometry">
            <Array as="points">
              <mxPoint x="650" y="60" />
              <mxPoint x="650" y="70" />
              <mxPoint x="610" y="70" />
            </Array>
          </mxGeometry>
        </mxCell>
        <mxCell id="_tSJOPq2AYvvMhshlOSx-59" style="edgeStyle=orthogonalEdgeStyle;rounded=0;orthogonalLoop=1;jettySize=auto;html=1;exitX=0.5;exitY=1;exitDx=0;exitDy=0;entryX=0.5;entryY=0;entryDx=0;entryDy=0;endArrow=none;endFill=0;" edge="1" parent="1" source="_tSJOPq2AYvvMhshlOSx-1" target="_tSJOPq2AYvvMhshlOSx-46">
          <mxGeometry relative="1" as="geometry">
            <Array as="points">
              <mxPoint x="650" y="70" />
              <mxPoint x="760" y="70" />
            </Array>
          </mxGeometry>
        </mxCell>
        <mxCell id="_tSJOPq2AYvvMhshlOSx-60" style="edgeStyle=orthogonalEdgeStyle;rounded=0;orthogonalLoop=1;jettySize=auto;html=1;exitX=0.5;exitY=1;exitDx=0;exitDy=0;endArrow=none;endFill=0;" edge="1" parent="1" source="_tSJOPq2AYvvMhshlOSx-1" target="_tSJOPq2AYvvMhshlOSx-48">
          <mxGeometry relative="1" as="geometry">
            <Array as="points">
              <mxPoint x="650" y="70" />
              <mxPoint x="910" y="70" />
            </Array>
          </mxGeometry>
        </mxCell>
        <mxCell id="_tSJOPq2AYvvMhshlOSx-1" value="Com Rumah Impian" style="rounded=1;whiteSpace=wrap;html=1;" vertex="1" parent="1">
          <mxGeometry x="590" width="120" height="60" as="geometry" />
        </mxCell>
        <mxCell id="_tSJOPq2AYvvMhshlOSx-10" value="" style="edgeStyle=orthogonalEdgeStyle;rounded=0;orthogonalLoop=1;jettySize=auto;html=1;endArrow=none;endFill=0;" edge="1" parent="1" source="_tSJOPq2AYvvMhshlOSx-2" target="_tSJOPq2AYvvMhshlOSx-9">
          <mxGeometry relative="1" as="geometry" />
        </mxCell>
        <mxCell id="_tSJOPq2AYvvMhshlOSx-2" value="Navbar" style="whiteSpace=wrap;html=1;rounded=1;" vertex="1" parent="1">
          <mxGeometry x="40" y="80" width="120" height="60" as="geometry" />
        </mxCell>
        <mxCell id="_tSJOPq2AYvvMhshlOSx-26" style="edgeStyle=orthogonalEdgeStyle;rounded=0;orthogonalLoop=1;jettySize=auto;html=1;exitX=0.5;exitY=1;exitDx=0;exitDy=0;entryX=0.5;entryY=0;entryDx=0;entryDy=0;endArrow=none;endFill=0;" edge="1" parent="1" source="_tSJOPq2AYvvMhshlOSx-8" target="_tSJOPq2AYvvMhshlOSx-23">
          <mxGeometry relative="1" as="geometry" />
        </mxCell>
        <mxCell id="_tSJOPq2AYvvMhshlOSx-8" value="Hero Section" style="whiteSpace=wrap;html=1;rounded=1;" vertex="1" parent="1">
          <mxGeometry x="240" y="80" width="120" height="60" as="geometry" />
        </mxCell>
        <mxCell id="_tSJOPq2AYvvMhshlOSx-21" style="edgeStyle=orthogonalEdgeStyle;rounded=0;orthogonalLoop=1;jettySize=auto;html=1;exitX=0.5;exitY=1;exitDx=0;exitDy=0;entryX=0.5;entryY=0;entryDx=0;entryDy=0;endArrow=none;endFill=0;" edge="1" parent="1" source="_tSJOPq2AYvvMhshlOSx-9" target="_tSJOPq2AYvvMhshlOSx-11">
          <mxGeometry relative="1" as="geometry" />
        </mxCell>
        <mxCell id="_tSJOPq2AYvvMhshlOSx-9" value="Logo" style="whiteSpace=wrap;html=1;rounded=1;" vertex="1" parent="1">
          <mxGeometry x="40" y="160" width="120" height="30" as="geometry" />
        </mxCell>
        <mxCell id="_tSJOPq2AYvvMhshlOSx-22" style="edgeStyle=orthogonalEdgeStyle;rounded=0;orthogonalLoop=1;jettySize=auto;html=1;exitX=0;exitY=0.5;exitDx=0;exitDy=0;entryX=0;entryY=0.5;entryDx=0;entryDy=0;endArrow=none;endFill=0;" edge="1" parent="1" source="_tSJOPq2AYvvMhshlOSx-11" target="_tSJOPq2AYvvMhshlOSx-12">
          <mxGeometry relative="1" as="geometry" />
        </mxCell>
        <mxCell id="_tSJOPq2AYvvMhshlOSx-11" value="Layanan" style="whiteSpace=wrap;html=1;rounded=1;" vertex="1" parent="1">
          <mxGeometry x="40" y="210" width="120" height="30" as="geometry" />
        </mxCell>
        <mxCell id="_tSJOPq2AYvvMhshlOSx-12" value="Kontak" style="whiteSpace=wrap;html=1;rounded=1;" vertex="1" parent="1">
          <mxGeometry x="40" y="350" width="120" height="30" as="geometry" />
        </mxCell>
        <mxCell id="_tSJOPq2AYvvMhshlOSx-19" style="edgeStyle=orthogonalEdgeStyle;rounded=0;orthogonalLoop=1;jettySize=auto;html=1;exitX=0;exitY=0.5;exitDx=0;exitDy=0;endArrow=none;endFill=0;" edge="1" parent="1" source="_tSJOPq2AYvvMhshlOSx-13">
          <mxGeometry relative="1" as="geometry">
            <mxPoint x="70" y="310.42105263157896" as="targetPoint" />
          </mxGeometry>
        </mxCell>
        <mxCell id="_tSJOPq2AYvvMhshlOSx-13" value="Beli" style="whiteSpace=wrap;html=1;rounded=1;" vertex="1" parent="1">
          <mxGeometry x="110" y="250" width="100" height="20" as="geometry" />
        </mxCell>
        <mxCell id="_tSJOPq2AYvvMhshlOSx-18" style="edgeStyle=orthogonalEdgeStyle;rounded=0;orthogonalLoop=1;jettySize=auto;html=1;exitX=0;exitY=0.5;exitDx=0;exitDy=0;entryX=0.25;entryY=1;entryDx=0;entryDy=0;endArrow=none;endFill=0;" edge="1" parent="1" source="_tSJOPq2AYvvMhshlOSx-14" target="_tSJOPq2AYvvMhshlOSx-11">
          <mxGeometry relative="1" as="geometry" />
        </mxCell>
        <mxCell id="_tSJOPq2AYvvMhshlOSx-14" value="Sewa" style="whiteSpace=wrap;html=1;rounded=1;" vertex="1" parent="1">
          <mxGeometry x="110" y="280" width="100" height="20" as="geometry" />
        </mxCell>
        <mxCell id="_tSJOPq2AYvvMhshlOSx-20" style="edgeStyle=orthogonalEdgeStyle;rounded=0;orthogonalLoop=1;jettySize=auto;html=1;exitX=0;exitY=0.5;exitDx=0;exitDy=0;endArrow=none;endFill=0;" edge="1" parent="1" source="_tSJOPq2AYvvMhshlOSx-15">
          <mxGeometry relative="1" as="geometry">
            <mxPoint x="70" y="300" as="targetPoint" />
            <Array as="points">
              <mxPoint x="90" y="320" />
              <mxPoint x="90" y="321" />
              <mxPoint x="70" y="321" />
            </Array>
          </mxGeometry>
        </mxCell>
        <mxCell id="_tSJOPq2AYvvMhshlOSx-15" value="Property Baru" style="whiteSpace=wrap;html=1;rounded=1;" vertex="1" parent="1">
          <mxGeometry x="110" y="310" width="100" height="20" as="geometry" />
        </mxCell>
        <mxCell id="_tSJOPq2AYvvMhshlOSx-27" style="edgeStyle=orthogonalEdgeStyle;rounded=0;orthogonalLoop=1;jettySize=auto;html=1;exitX=0.5;exitY=1;exitDx=0;exitDy=0;entryX=0.5;entryY=0;entryDx=0;entryDy=0;endArrow=none;endFill=0;" edge="1" parent="1" source="_tSJOPq2AYvvMhshlOSx-23" target="_tSJOPq2AYvvMhshlOSx-24">
          <mxGeometry relative="1" as="geometry" />
        </mxCell>
        <mxCell id="_tSJOPq2AYvvMhshlOSx-23" value="Tagline" style="whiteSpace=wrap;html=1;rounded=1;" vertex="1" parent="1">
          <mxGeometry x="240" y="160" width="120" height="30" as="geometry" />
        </mxCell>
        <mxCell id="_tSJOPq2AYvvMhshlOSx-28" style="edgeStyle=orthogonalEdgeStyle;rounded=0;orthogonalLoop=1;jettySize=auto;html=1;exitX=0.5;exitY=1;exitDx=0;exitDy=0;entryX=0.5;entryY=0;entryDx=0;entryDy=0;endArrow=none;endFill=0;" edge="1" parent="1" source="_tSJOPq2AYvvMhshlOSx-24" target="_tSJOPq2AYvvMhshlOSx-25">
          <mxGeometry relative="1" as="geometry" />
        </mxCell>
        <mxCell id="_tSJOPq2AYvvMhshlOSx-24" value="Hero Image" style="whiteSpace=wrap;html=1;rounded=1;" vertex="1" parent="1">
          <mxGeometry x="240" y="210" width="120" height="30" as="geometry" />
        </mxCell>
        <mxCell id="_tSJOPq2AYvvMhshlOSx-25" value="CTA" style="whiteSpace=wrap;html=1;rounded=1;" vertex="1" parent="1">
          <mxGeometry x="240" y="260" width="120" height="30" as="geometry" />
        </mxCell>
        <mxCell id="_tSJOPq2AYvvMhshlOSx-33" style="edgeStyle=orthogonalEdgeStyle;rounded=0;orthogonalLoop=1;jettySize=auto;html=1;exitX=0;exitY=0.5;exitDx=0;exitDy=0;endArrow=none;endFill=0;" edge="1" parent="1" source="_tSJOPq2AYvvMhshlOSx-30">
          <mxGeometry relative="1" as="geometry">
            <mxPoint x="20" y="360" as="targetPoint" />
          </mxGeometry>
        </mxCell>
        <mxCell id="_tSJOPq2AYvvMhshlOSx-30" value="Masuk" style="whiteSpace=wrap;html=1;rounded=1;" vertex="1" parent="1">
          <mxGeometry x="40" y="400" width="120" height="30" as="geometry" />
        </mxCell>
        <mxCell id="_tSJOPq2AYvvMhshlOSx-34" style="edgeStyle=orthogonalEdgeStyle;rounded=0;orthogonalLoop=1;jettySize=auto;html=1;exitX=0;exitY=0.5;exitDx=0;exitDy=0;endArrow=none;endFill=0;" edge="1" parent="1" source="_tSJOPq2AYvvMhshlOSx-31">
          <mxGeometry relative="1" as="geometry">
            <mxPoint x="20" y="410" as="targetPoint" />
          </mxGeometry>
        </mxCell>
        <mxCell id="_tSJOPq2AYvvMhshlOSx-31" value="Daftar" style="whiteSpace=wrap;html=1;rounded=1;" vertex="1" parent="1">
          <mxGeometry x="40" y="450" width="120" height="30" as="geometry" />
        </mxCell>
        <mxCell id="_tSJOPq2AYvvMhshlOSx-41" style="edgeStyle=orthogonalEdgeStyle;rounded=0;orthogonalLoop=1;jettySize=auto;html=1;exitX=0.5;exitY=1;exitDx=0;exitDy=0;entryX=0.5;entryY=0;entryDx=0;entryDy=0;endArrow=none;endFill=0;" edge="1" parent="1" source="_tSJOPq2AYvvMhshlOSx-35" target="_tSJOPq2AYvvMhshlOSx-36">
          <mxGeometry relative="1" as="geometry" />
        </mxCell>
        <mxCell id="_tSJOPq2AYvvMhshlOSx-35" value="Layanan" style="whiteSpace=wrap;html=1;rounded=1;" vertex="1" parent="1">
          <mxGeometry x="400" y="80" width="120" height="60" as="geometry" />
        </mxCell>
        <mxCell id="_tSJOPq2AYvvMhshlOSx-42" style="edgeStyle=orthogonalEdgeStyle;rounded=0;orthogonalLoop=1;jettySize=auto;html=1;exitX=0.5;exitY=1;exitDx=0;exitDy=0;entryX=0.5;entryY=0;entryDx=0;entryDy=0;endArrow=none;endFill=0;" edge="1" parent="1" source="_tSJOPq2AYvvMhshlOSx-36" target="_tSJOPq2AYvvMhshlOSx-37">
          <mxGeometry relative="1" as="geometry" />
        </mxCell>
        <mxCell id="_tSJOPq2AYvvMhshlOSx-36" value="Beli" style="whiteSpace=wrap;html=1;rounded=1;" vertex="1" parent="1">
          <mxGeometry x="400" y="160" width="120" height="30" as="geometry" />
        </mxCell>
        <mxCell id="_tSJOPq2AYvvMhshlOSx-43" style="edgeStyle=orthogonalEdgeStyle;rounded=0;orthogonalLoop=1;jettySize=auto;html=1;exitX=0.5;exitY=1;exitDx=0;exitDy=0;entryX=0.5;entryY=0;entryDx=0;entryDy=0;endArrow=none;endFill=0;" edge="1" parent="1" source="_tSJOPq2AYvvMhshlOSx-37" target="_tSJOPq2AYvvMhshlOSx-38">
          <mxGeometry relative="1" as="geometry" />
        </mxCell>
        <mxCell id="_tSJOPq2AYvvMhshlOSx-37" value="Sewa" style="whiteSpace=wrap;html=1;rounded=1;" vertex="1" parent="1">
          <mxGeometry x="400" y="210" width="120" height="30" as="geometry" />
        </mxCell>
        <mxCell id="_tSJOPq2AYvvMhshlOSx-38" value="Property Baru" style="whiteSpace=wrap;html=1;rounded=1;" vertex="1" parent="1">
          <mxGeometry x="400" y="260" width="120" height="30" as="geometry" />
        </mxCell>
        <mxCell id="_tSJOPq2AYvvMhshlOSx-44" value="Temukan Rumah Impian" style="whiteSpace=wrap;html=1;rounded=1;" vertex="1" parent="1">
          <mxGeometry x="550" y="80" width="120" height="60" as="geometry" />
        </mxCell>
        <mxCell id="_tSJOPq2AYvvMhshlOSx-45" value="Search Bar" style="whiteSpace=wrap;html=1;rounded=1;" vertex="1" parent="1">
          <mxGeometry x="550" y="160" width="120" height="30" as="geometry" />
        </mxCell>
        <mxCell id="_tSJOPq2AYvvMhshlOSx-46" value="Rekomendasi Rumah Impian" style="whiteSpace=wrap;html=1;rounded=1;" vertex="1" parent="1">
          <mxGeometry x="700" y="80" width="120" height="60" as="geometry" />
        </mxCell>
        <mxCell id="_tSJOPq2AYvvMhshlOSx-47" value="Contact + Footer" style="whiteSpace=wrap;html=1;rounded=1;" vertex="1" parent="1">
          <mxGeometry x="990" y="80" width="120" height="60" as="geometry" />
        </mxCell>
        <mxCell id="_tSJOPq2AYvvMhshlOSx-48" value="Fitur Rumah" style="whiteSpace=wrap;html=1;rounded=1;" vertex="1" parent="1">
          <mxGeometry x="850" y="80" width="120" height="60" as="geometry" />
        </mxCell>
        <mxCell id="_tSJOPq2AYvvMhshlOSx-49" value="Rumah" style="whiteSpace=wrap;html=1;rounded=1;" vertex="1" parent="1">
          <mxGeometry x="700" y="160" width="120" height="30" as="geometry" />
        </mxCell>
        <mxCell id="_tSJOPq2AYvvMhshlOSx-50" value="Property Baru" style="whiteSpace=wrap;html=1;rounded=1;" vertex="1" parent="1">
          <mxGeometry x="700" y="210" width="120" height="30" as="geometry" />
        </mxCell>
        <mxCell id="_tSJOPq2AYvvMhshlOSx-52" value="Form" style="whiteSpace=wrap;html=1;rounded=1;" vertex="1" parent="1">
          <mxGeometry x="990" y="160" width="120" height="30" as="geometry" />
        </mxCell>
        <mxCell id="_tSJOPq2AYvvMhshlOSx-53" value="Alamat" style="whiteSpace=wrap;html=1;rounded=1;" vertex="1" parent="1">
          <mxGeometry x="990" y="210" width="120" height="30" as="geometry" />
        </mxCell>
        <mxCell id="_tSJOPq2AYvvMhshlOSx-54" value="Sosmed" style="whiteSpace=wrap;html=1;rounded=1;" vertex="1" parent="1">
          <mxGeometry x="990" y="260" width="120" height="30" as="geometry" />
        </mxCell>
        <mxCell id="_tSJOPq2AYvvMhshlOSx-62" value="" style="endArrow=none;html=1;rounded=0;" edge="1" parent="1">
          <mxGeometry width="50" height="50" relative="1" as="geometry">
            <mxPoint x="840" y="70" as="sourcePoint" />
            <mxPoint x="1050" y="70" as="targetPoint" />
          </mxGeometry>
        </mxCell>
        <mxCell id="_tSJOPq2AYvvMhshlOSx-65" value="" style="endArrow=none;html=1;rounded=0;" edge="1" parent="1">
          <mxGeometry width="50" height="50" relative="1" as="geometry">
            <mxPoint x="1050" y="80" as="sourcePoint" />
            <mxPoint x="1050" y="70" as="targetPoint" />
          </mxGeometry>
        </mxCell>
        <mxCell id="_tSJOPq2AYvvMhshlOSx-66" value="" style="endArrow=none;html=1;rounded=0;entryX=0.5;entryY=1;entryDx=0;entryDy=0;exitX=0.5;exitY=0;exitDx=0;exitDy=0;" edge="1" parent="1" source="_tSJOPq2AYvvMhshlOSx-45" target="_tSJOPq2AYvvMhshlOSx-44">
          <mxGeometry width="50" height="50" relative="1" as="geometry">
            <mxPoint x="590" y="200" as="sourcePoint" />
            <mxPoint x="640" y="150" as="targetPoint" />
          </mxGeometry>
        </mxCell>
        <mxCell id="_tSJOPq2AYvvMhshlOSx-67" value="" style="endArrow=none;html=1;rounded=0;entryX=0.5;entryY=1;entryDx=0;entryDy=0;" edge="1" parent="1" target="_tSJOPq2AYvvMhshlOSx-46">
          <mxGeometry width="50" height="50" relative="1" as="geometry">
            <mxPoint x="760" y="160" as="sourcePoint" />
            <mxPoint x="820" y="150" as="targetPoint" />
          </mxGeometry>
        </mxCell>
        <mxCell id="_tSJOPq2AYvvMhshlOSx-68" value="" style="endArrow=none;html=1;rounded=0;exitX=0.5;exitY=0;exitDx=0;exitDy=0;entryX=0.5;entryY=1;entryDx=0;entryDy=0;" edge="1" parent="1" source="_tSJOPq2AYvvMhshlOSx-50" target="_tSJOPq2AYvvMhshlOSx-49">
          <mxGeometry width="50" height="50" relative="1" as="geometry">
            <mxPoint x="770" y="200" as="sourcePoint" />
            <mxPoint x="820" y="150" as="targetPoint" />
          </mxGeometry>
        </mxCell>
        <mxCell id="_tSJOPq2AYvvMhshlOSx-69" value="" style="endArrow=none;html=1;rounded=0;entryX=0.5;entryY=1;entryDx=0;entryDy=0;exitX=0.5;exitY=0;exitDx=0;exitDy=0;" edge="1" parent="1" source="_tSJOPq2AYvvMhshlOSx-52" target="_tSJOPq2AYvvMhshlOSx-47">
          <mxGeometry width="50" height="50" relative="1" as="geometry">
            <mxPoint x="960" y="200" as="sourcePoint" />
            <mxPoint x="1010" y="150" as="targetPoint" />
          </mxGeometry>
        </mxCell>
        <mxCell id="_tSJOPq2AYvvMhshlOSx-71" value="" style="endArrow=none;html=1;rounded=0;exitX=0.5;exitY=0;exitDx=0;exitDy=0;entryX=0.5;entryY=1;entryDx=0;entryDy=0;" edge="1" parent="1" source="_tSJOPq2AYvvMhshlOSx-53" target="_tSJOPq2AYvvMhshlOSx-52">
          <mxGeometry width="50" height="50" relative="1" as="geometry">
            <mxPoint x="960" y="200" as="sourcePoint" />
            <mxPoint x="1010" y="150" as="targetPoint" />
          </mxGeometry>
        </mxCell>
        <mxCell id="_tSJOPq2AYvvMhshlOSx-72" value="" style="endArrow=none;html=1;rounded=0;exitX=0.5;exitY=0;exitDx=0;exitDy=0;entryX=0.5;entryY=1;entryDx=0;entryDy=0;" edge="1" parent="1" source="_tSJOPq2AYvvMhshlOSx-54" target="_tSJOPq2AYvvMhshlOSx-53">
          <mxGeometry width="50" height="50" relative="1" as="geometry">
            <mxPoint x="960" y="200" as="sourcePoint" />
            <mxPoint x="1010" y="150" as="targetPoint" />
          </mxGeometry>
        </mxCell>
      </root>
    </mxGraphModel>
  </diagram>
</mxfile>
